<svg xmlns="http://www.w3.org/2000/svg" viewBox="0 0 64 64">
<defs><linearGradient id="g" x1="0" y1="0" x2="1" y2="1">
<stop offset="0" stop-color="#0ea5e9"/><stop offset="1" stop-color="#22c55e"/>
</linearGradient></defs>
<path fill="url(#g)" d="M36.5 4.5l2.2 4.4a22.2 22.2 0 0 1 5.4 2.2l4.6-1.9 4.7 8.2-4 3.1c.4 1.7.6 3.4.6 5.2s-.2 3.5-.6 5.2l4 3.1-4.7 8.2-4.6-1.9a22.2 22.2 0 0 1-5.4 2.2l-2.2 4.4h-9.4l-2.2-4.4a22.2 22.2 0 0 1-5.4-2.2l-4.6 1.9-4.7-8.2 4-3.1A20 20 0 0 1 11 29.7c0-1.8.2-3.5.6-5.2l-4-3.1 4.7-8.2 4.6 1.9a22.2 22.2 0 0 1 5.4-2.2l2.2-4.4h9.4z"/>
<circle cx="24" cy="36" r="5" fill="#fff"/>
<circle cx="41" cy="33" r="5" fill="#fff"/>
<circle cx="36" cy="22" r="5" fill="#fff"/>
</svg>
